<?xml version="1.0" standalone="no"?>
<!DOCTYPE svg PUBLIC "-//W3C//DTD SVG 20010904//EN"
 "http://www.w3.org/TR/2001/REC-SVG-20010904/DTD/svg10.dtd">
<svg version="1.0" xmlns="http://www.w3.org/2000/svg"
 width="373.000000pt" height="373.000000pt" viewBox="0 0 373.000000 373.000000"
 preserveAspectRatio="xMidYMid meet">
<metadata>
Created by potrace 1.14, written by Peter Selinger 2001-2017
</metadata>
<g transform="translate(0.000000,373.000000) scale(0.100000,-0.100000)"
fill="#000000" stroke="none">
<path d="M1640 3657 c-36 -4 -72 -9 -80 -9 -13 0 -95 -18 -155 -34 -11 -3 -27
-7 -35 -9 -8 -2 -15 -4 -15 -5 0 -1 -9 -4 -20 -6 -34 -8 -50 -12 -50 -14 0 -1
-7 -3 -15 -5 -36 -8 -231 -94 -240 -107 -3 -3 -17 -9 -32 -13 -15 -4 -32 -13
-39 -21 -6 -8 -17 -14 -25 -14 -7 0 -19 -6 -26 -12 -20 -19 -76 -58 -83 -58
-16 0 -153 -117 -245 -210 -108 -108 -127 -129 -170 -190 -13 -19 -27 -37 -30
-40 -12 -11 -90 -130 -84 -130 3 0 -4 -12 -15 -26 -40 -51 -133 -267 -165
-384 -10 -36 -22 -70 -27 -76 -5 -6 -7 -13 -4 -16 3 -3 -1 -34 -10 -69 -8 -35
-15 -79 -15 -96 0 -18 -3 -33 -7 -33 -10 0 -9 -358 1 -450 3 -36 15 -101 25
-145 11 -44 17 -83 15 -87 -3 -5 0 -8 7 -8 6 0 9 -8 6 -20 -3 -11 -2 -20 3
-20 4 0 11 -16 14 -35 13 -65 112 -289 169 -380 42 -67 72 -111 80 -116 5 -3
9 -10 9 -15 2 -36 213 -260 345 -366 133 -108 311 -216 406 -247 20 -7 37 -17
37 -22 0 -5 11 -9 23 -9 13 0 27 -3 30 -7 9 -8 107 -43 107 -38 0 3 12 0 28
-6 15 -6 36 -13 47 -15 11 -2 30 -6 43 -8 13 -3 31 -7 40 -10 25 -8 70 -15
132 -23 72 -9 401 -8 465 1 28 4 59 8 70 10 16 2 119 24 145 31 80 21 177 53
215 70 57 26 90 38 98 37 4 -1 7 3 7 9 0 5 5 7 10 4 6 -3 10 -1 10 4 0 6 7 11
15 11 8 0 37 13 63 30 27 16 52 30 56 30 4 0 12 5 19 10 27 23 84 61 110 73
15 7 24 16 20 20 -3 4 -1 7 5 7 32 0 241 199 351 334 107 133 203 298 261 451
12 33 26 68 31 77 5 10 9 22 9 27 0 5 5 22 12 38 6 15 11 31 10 34 -1 4 3 22
9 40 9 30 17 64 23 106 1 7 5 15 8 19 4 3 4 17 2 30 -2 13 -1 24 3 24 10 0 13
46 16 283 2 108 -1 197 -5 197 -4 0 -8 15 -8 33 0 47 -5 80 -12 93 -4 6 -9 30
-10 52 -2 23 -6 42 -10 42 -4 0 -7 8 -7 18 0 16 -7 54 -11 60 -2 1 -3 5 -4 10
-4 15 -28 88 -36 107 -4 11 -18 45 -30 75 -26 67 -81 176 -115 230 -14 22 -25
44 -25 50 0 5 -4 10 -8 10 -5 0 -15 12 -23 27 -8 15 -21 35 -29 44 -28 33 -40
48 -40 53 0 6 -36 47 -112 130 -26 28 -48 54 -48 59 0 4 -4 7 -9 7 -5 0 -24
15 -43 33 -57 54 -119 107 -142 119 -11 6 -23 14 -26 19 -10 14 -136 89 -240
141 -58 29 -108 58 -112 63 -4 6 -8 7 -8 2 0 -4 -17 0 -37 9 -21 9 -42 17 -48
18 -5 2 -23 8 -38 14 -15 7 -41 14 -56 17 -15 2 -47 12 -71 20 -24 8 -45 13
-48 10 -2 -2 -12 0 -21 4 -9 5 -38 11 -66 15 -27 3 -77 10 -110 15 -74 11
-328 10 -415 -2z"/>
</g>
</svg>
