<?xml version="1.0" encoding="utf-8"?>
<!-- Generator: Adobe Illustrator 13.0.0, SVG Export Plug-In . SVG Version: 6.00 Build 14948)  -->
<!DOCTYPE svg PUBLIC "-//W3C//DTD SVG 1.1//EN" "http://www.w3.org/Graphics/SVG/1.1/DTD/svg11.dtd">
<svg version="1.1" xmlns="http://www.w3.org/2000/svg" xmlns:xlink="http://www.w3.org/1999/xlink" x="0px" y="0px" width="282px"
	 height="95px" viewBox="0 0 282 95" enable-background="new 0 0 282 95" xml:space="preserve">
<g id="Layer_1">
	<polygon fill="#FFFFFF" points="100.579,32.122 98.003,31.914 98.003,14.773 110.738,34.053 113.051,34.053 113.051,12.633 
		115.625,12.426 115.625,10.479 108.038,10.479 108.038,12.426 110.613,12.633 110.613,29.723 97.879,10.479 92.971,10.479 
		92.971,12.426 95.551,12.633 95.551,31.914 92.971,32.122 92.971,34.053 100.579,34.053 	"/>
	<path fill="#FFFFFF" d="M127.611,33.465c0.833-0.475,1.553-1.043,2.139-1.703c0.014,0.182,0.029,0.36,0.055,0.544
		c0.045,0.427,0.144,0.94,0.268,1.524l0.045,0.223h3.881v-1.936l-1.752-0.112c-0.03-0.223-0.049-0.456-0.063-0.692
		c-0.017-0.314-0.021-0.646-0.021-0.99v-8.403c0-1.871-0.615-3.33-1.825-4.34c-1.192-1.003-2.79-1.507-4.73-1.507
		c-1.27,0-2.485,0.199-3.608,0.586c-1.121,0.388-2.108,0.898-2.917,1.528l-0.104,0.082l-0.02,3.71h2.108l0.164-2.436
		c0.487-0.379,1.082-0.688,1.792-0.924c0.745-0.25,1.592-0.375,2.511-0.375c1.331,0,2.378,0.33,3.102,0.975
		c0.734,0.645,1.083,1.521,1.083,2.668v1.977h-3.493c-2.373,0-4.284,0.489-5.693,1.444c-1.435,0.976-2.154,2.322-2.154,3.988
		c0,1.551,0.486,2.801,1.464,3.715c0.958,0.91,2.338,1.372,4.075,1.372C125.278,34.383,126.515,34.072,127.611,33.465
		 M120.813,29.362c0-0.994,0.471-1.803,1.418-2.464c0.979-0.677,2.309-1.017,3.961-1.017h3.524v3.084
		c-0.438,0.921-1.152,1.683-2.125,2.273c-0.987,0.602-2.163,0.908-3.474,0.908c-1.042,0-1.86-0.259-2.442-0.772
		C121.1,30.856,120.813,30.201,120.813,29.362"/>
	<path fill="#FFFFFF" d="M139.021,29.362c0,1.702,0.361,2.978,1.07,3.793c0.731,0.811,1.744,1.228,3.024,1.228
		c0.46,0,0.933-0.04,1.398-0.117c0.481-0.075,0.883-0.187,1.221-0.334l0.209-0.088l-0.383-1.896l-0.268,0.047
		c-0.373,0.06-0.7,0.107-0.982,0.127c-0.278,0.025-0.566,0.039-0.868,0.039c-0.596,0-1.058-0.195-1.405-0.602
		c-0.361-0.418-0.54-1.155-0.54-2.197V18.497h3.761v-2.109h-3.761v-4.375h-2.477v4.375h-2.934v2.109h2.934V29.362z"/>
	<rect x="151.194" y="8.835" fill="#FFFFFF" width="2.44" height="3.218"/>
	<polygon fill="#FFFFFF" points="156.205,32.122 153.631,31.914 153.631,16.388 148.614,16.388 148.614,18.335 151.194,18.544 
		151.194,31.914 148.614,32.122 148.614,34.053 156.205,34.053 	"/>
	<path fill="#FFFFFF" d="M167.264,34.386c2.347,0,4.263-0.844,5.691-2.513c1.409-1.649,2.129-3.801,2.129-6.382v-0.522
		c0-2.576-0.724-4.722-2.134-6.378c-1.438-1.667-3.359-2.517-5.717-2.517c-2.347,0-4.268,0.85-5.697,2.517
		c-1.424,1.656-2.139,3.802-2.139,6.378v0.522c0,2.581,0.715,4.732,2.139,6.382C162.966,33.542,164.896,34.386,167.264,34.386
		 M161.854,24.969c0-1.882,0.492-3.491,1.444-4.797c0.958-1.298,2.248-1.928,3.936-1.928c1.692,0,2.982,0.63,3.935,1.928
		c0.963,1.306,1.455,2.915,1.455,4.797v0.522c0,1.911-0.485,3.532-1.444,4.821c-0.957,1.288-2.233,1.914-3.915,1.914
		c-1.708,0-3.008-0.626-3.966-1.914c-0.952-1.289-1.444-2.91-1.444-4.821V24.969z"/>
	<path fill="#FFFFFF" d="M185.357,32.122l-2.575-0.208V21.881c0.357-1.081,0.933-1.961,1.712-2.615
		c0.779-0.657,1.816-0.987,3.071-0.987c1.276,0,2.223,0.367,2.913,1.124c0.681,0.757,1.022,2.095,1.022,3.968v8.544l-2.575,0.208
		v1.931h7.607v-1.931l-2.574-0.208v-8.56c0-2.458-0.513-4.302-1.52-5.482c-1.022-1.193-2.521-1.8-4.447-1.8
		c-1.325,0-2.492,0.306-3.464,0.906c-0.724,0.441-1.34,1.036-1.841,1.759l-0.14-2.35h-4.798v1.947l2.58,0.209v13.37l-2.58,0.208
		v1.931h7.607V32.122z"/>
	<path fill="#FFFFFF" d="M207.387,23.866c-2.376,0-4.288,0.481-5.697,1.437c-1.434,0.983-2.153,2.323-2.153,3.996
		c0,1.551,0.486,2.801,1.464,3.709c0.957,0.915,2.338,1.378,4.074,1.378c1.359,0,2.601-0.311,3.693-0.927
		c0.838-0.467,1.558-1.034,2.139-1.697c0.019,0.179,0.034,0.363,0.059,0.547c0.045,0.427,0.139,0.938,0.269,1.523l0.045,0.218h3.88
		v-1.93l-1.752-0.113c-0.03-0.228-0.055-0.458-0.063-0.69c-0.015-0.32-0.025-0.651-0.025-0.992v-8.405
		c0-1.869-0.61-3.328-1.821-4.346c-1.19-0.994-2.789-1.499-4.729-1.499c-1.271,0-2.487,0.195-3.608,0.586
		c-1.122,0.386-2.109,0.898-2.919,1.524l-0.104,0.087l-0.021,3.709h2.104l0.168-2.435c0.487-0.387,1.083-0.697,1.787-0.925
		c0.75-0.249,1.593-0.375,2.517-0.375c1.33,0,2.377,0.33,3.102,0.975c0.735,0.646,1.082,1.515,1.082,2.663v1.982H207.387z
		 M210.876,28.969c-0.438,0.92-1.152,1.683-2.125,2.271c-0.986,0.6-2.163,0.905-3.474,0.905c-1.041,0-1.861-0.259-2.446-0.771
		c-0.571-0.515-0.858-1.169-0.858-2.008c0-1.003,0.467-1.804,1.42-2.467c0.977-0.675,2.308-1.015,3.961-1.015h3.522V28.969z"/>
	<polygon fill="#FFFFFF" points="224.959,32.122 222.385,31.914 222.385,8.832 217.367,8.832 217.367,10.782 219.948,10.986 
		219.948,31.914 217.367,32.122 217.367,34.053 224.959,34.053 	"/>
	<path fill="#FFFFFF" d="M108.614,48.877c0-2.445-0.774-4.482-2.308-6.048c-1.534-1.568-3.494-2.361-5.842-2.361h-7.791v1.682
		l2.089,0.161v15.526l-2.089,0.169v1.664h7.791c2.348,0,4.308-0.791,5.842-2.353c1.533-1.556,2.308-3.594,2.308-6.046V48.877z
		 M106.514,51.271c0,1.89-0.571,3.471-1.711,4.699c-1.127,1.226-2.591,1.846-4.338,1.846h-3.612V42.338h3.612
		c1.738,0,3.202,0.62,4.333,1.839c1.146,1.23,1.717,2.802,1.717,4.659V51.271z"/>
	<rect x="113.407" y="39.135" fill="#FFFFFF" width="2.079" height="2.711"/>
	<polygon fill="#FFFFFF" points="115.486,45.256 111.323,45.256 111.323,46.938 113.407,47.102 113.407,57.84 111.323,58 
		111.323,59.668 117.576,59.668 117.576,58 115.486,57.84 	"/>
	<path fill="#FFFFFF" d="M129.904,46.94c-0.408-0.513-0.878-0.936-1.426-1.255c-0.758-0.452-1.666-0.685-2.694-0.685
		c-1.766,0-3.156,0.711-4.153,2.108c-0.978,1.368-1.47,3.211-1.47,5.466v0.271c0,2.118,0.492,3.842,1.47,5.121
		c0.993,1.313,2.378,1.973,4.124,1.973c1.007,0,1.9-0.203,2.655-0.604c0.517-0.269,0.978-0.631,1.369-1.063v0.935
		c0,1.306-0.313,2.338-0.933,3.061c-0.605,0.706-1.528,1.067-2.759,1.067c-0.646,0-1.275-0.073-1.861-0.209
		c-0.586-0.142-1.151-0.341-1.692-0.601l-0.283-0.138l-0.586,1.83l0.215,0.106c0.585,0.29,1.269,0.522,2.05,0.692
		c0.768,0.161,1.508,0.248,2.184,0.248c1.806,0,3.225-0.548,4.236-1.64c1.018-1.077,1.524-2.569,1.524-4.418V45.254h-1.826
		L129.904,46.94z M129.779,55.717c-0.333,0.718-0.804,1.285-1.404,1.698c-0.61,0.422-1.399,0.629-2.333,0.629
		c-1.259,0-2.183-0.445-2.813-1.366c-0.646-0.945-0.963-2.23-0.963-3.831v-0.271c0-1.696,0.328-3.095,0.988-4.15
		c0.64-1.032,1.554-1.534,2.814-1.534c0.967,0,1.756,0.238,2.342,0.701c0.591,0.468,1.052,1.078,1.369,1.818V55.717z"/>
	<rect x="137.313" y="39.135" fill="#FFFFFF" width="2.085" height="2.711"/>
	<polygon fill="#FFFFFF" points="141.482,58.003 139.403,57.837 139.403,45.258 135.229,45.258 135.229,46.934 137.318,47.102 
		137.318,57.837 135.229,58.003 135.229,59.67 141.482,59.67 	"/>
	<path fill="#FFFFFF" d="M151.492,59.571l0.208-0.092l-0.321-1.626l-0.27,0.04c-0.308,0.052-0.57,0.092-0.793,0.106
		c-0.225,0.021-0.457,0.03-0.701,0.03c-0.466,0-0.822-0.152-1.102-0.472c-0.282-0.32-0.427-0.911-0.427-1.742v-8.742h3.053v-1.818
		h-3.053v-3.548h-2.109v3.548h-2.382v1.818h2.382v8.742c0,1.396,0.303,2.445,0.889,3.104c0.592,0.676,1.425,1.016,2.477,1.016
		c0.383,0,0.774-0.03,1.151-0.089C150.877,59.784,151.214,59.688,151.492,59.571"/>
	<path fill="#FFFFFF" d="M154.384,46.805l-0.014,3.084h1.816l0.135-1.997c0.382-0.298,0.853-0.543,1.409-0.725
		c0.604-0.199,1.285-0.302,2.023-0.302c1.066,0,1.902,0.26,2.477,0.778c0.582,0.514,0.858,1.203,0.858,2.119v1.55h-2.778
		c-1.931,0-3.49,0.395-4.635,1.174c-1.176,0.802-1.777,1.906-1.777,3.283c0,1.266,0.407,2.29,1.205,3.045
		c0.79,0.746,1.921,1.121,3.341,1.121c1.111,0,2.129-0.248,3.023-0.747c0.645-0.363,1.196-0.795,1.662-1.3
		c0.01,0.107,0.02,0.214,0.033,0.32c0.04,0.345,0.115,0.766,0.225,1.24l0.039,0.223h3.235V58l-1.414-0.092
		c-0.03-0.168-0.044-0.334-0.054-0.513c-0.011-0.249-0.016-0.525-0.016-0.798v-6.811c0-1.528-0.501-2.729-1.499-3.556
		c-0.973-0.819-2.277-1.23-3.865-1.23c-1.033,0-2.024,0.155-2.943,0.474c-0.909,0.316-1.717,0.734-2.371,1.248L154.384,46.805z
		 M163.089,55.483c-0.348,0.732-0.917,1.343-1.691,1.81c-0.795,0.483-1.737,0.728-2.788,0.728c-0.83,0-1.484-0.209-1.946-0.616
		c-0.451-0.406-0.676-0.923-0.676-1.59c0-0.787,0.373-1.422,1.122-1.945c0.79-0.544,1.856-0.819,3.176-0.819h2.804V55.483z"/>
	<polygon fill="#FFFFFF" points="174.618,58.003 172.533,57.837 172.533,39.135 168.359,39.135 168.359,40.816 170.449,40.979 
		170.449,57.837 168.359,58.003 168.359,59.67 174.618,59.67 	"/>
	<polygon fill="#FFFFFF" points="194.826,57.816 187.63,57.816 187.63,42.313 189.714,42.149 189.714,40.468 183.452,40.468 
		183.452,42.149 185.536,42.313 185.536,57.837 183.452,58.006 183.452,59.672 196.847,59.672 196.847,55.188 194.94,55.188 	"/>
	<polygon fill="#FFFFFF" points="203.451,45.256 199.283,45.256 199.283,46.938 201.371,47.102 201.371,57.84 199.283,58 
		199.283,59.668 205.535,59.668 205.535,58 203.451,57.84 	"/>
	<rect x="201.371" y="39.135" fill="#FFFFFF" width="2.084" height="2.711"/>
	<path fill="#FFFFFF" d="M214.936,45.001c-1.038,0-1.94,0.223-2.705,0.67c-0.501,0.3-0.948,0.686-1.335,1.153v-7.689h-4.178v1.677
		l2.084,0.169V59.67h1.851l0.124-1.567c0.397,0.491,0.879,0.888,1.425,1.192c0.778,0.427,1.702,0.646,2.759,0.646
		c1.732,0,3.116-0.659,4.104-1.963c0.972-1.279,1.464-3.007,1.464-5.131v-0.271c0-2.26-0.492-4.094-1.459-5.466
		C218.087,45.712,216.687,45.001,214.936,45.001 M218.419,52.847c0,1.605-0.318,2.896-0.958,3.835
		c-0.625,0.922-1.532,1.362-2.779,1.362c-0.952,0-1.757-0.223-2.377-0.658c-0.62-0.428-1.097-1.018-1.409-1.746v-6.148
		c0.288-0.757,0.745-1.382,1.346-1.868c0.595-0.483,1.414-0.732,2.416-0.732c1.236,0,2.149,0.496,2.785,1.523
		c0.648,1.058,0.977,2.46,0.977,4.161V52.847z"/>
	<path fill="#FFFFFF" d="M231.525,45.047c-0.198-0.029-0.401-0.044-0.609-0.044c-0.983,0-1.852,0.258-2.581,0.772
		c-0.473,0.334-0.884,0.761-1.222,1.274l-0.148-1.794H223v1.683l2.089,0.16V57.84L223,58v1.668h6.263V58l-2.084-0.16v-7.974
		c0.243-0.876,0.654-1.565,1.231-2.063c0.555-0.495,1.294-0.742,2.172-0.742l1.396,0.091l0.276-1.93l-0.237-0.067
		C231.884,45.114,231.72,45.077,231.525,45.047"/>
	<path fill="#FFFFFF" d="M245.416,57.396c-0.014-0.253-0.021-0.525-0.021-0.798v-6.811c0-1.528-0.5-2.729-1.498-3.556
		c-0.978-0.819-2.277-1.23-3.866-1.23c-1.032,0-2.019,0.155-2.938,0.474c-0.912,0.316-1.716,0.734-2.376,1.248l-0.109,0.082
		l-0.014,3.084h1.815l0.129-1.997c0.383-0.298,0.859-0.543,1.414-0.725c0.602-0.199,1.28-0.302,2.016-0.302
		c1.071,0,1.905,0.26,2.485,0.778c0.577,0.514,0.858,1.203,0.858,2.119v1.55h-2.779c-1.935,0-3.494,0.395-4.64,1.174
		c-1.172,0.802-1.775,1.906-1.775,3.283c0,1.266,0.411,2.29,1.21,3.045c0.783,0.746,1.915,1.121,3.335,1.121
		c1.117,0,2.125-0.248,3.022-0.747c0.646-0.363,1.196-0.795,1.656-1.3c0.011,0.107,0.025,0.214,0.04,0.32
		c0.04,0.345,0.115,0.766,0.224,1.24l0.045,0.223h3.23V58l-1.419-0.092C245.441,57.74,245.421,57.574,245.416,57.396
		 M243.312,55.483c-0.347,0.732-0.923,1.343-1.696,1.81c-0.789,0.483-1.732,0.728-2.785,0.728c-0.833,0-1.487-0.209-1.945-0.616
		c-0.456-0.406-0.674-0.923-0.674-1.59c0-0.787,0.362-1.422,1.121-1.945c0.785-0.544,1.852-0.819,3.176-0.819h2.804V55.483z"/>
	<path fill="#FFFFFF" d="M257.307,45.047c-0.197-0.029-0.406-0.044-0.615-0.044c-0.978,0-1.845,0.258-2.575,0.772
		c-0.477,0.334-0.884,0.761-1.227,1.274l-0.148-1.794h-3.961v1.683l2.091,0.16V57.84L248.78,58v1.668h6.264V58l-2.084-0.16v-7.974
		c0.243-0.876,0.655-1.565,1.226-2.063c0.556-0.495,1.295-0.742,2.179-0.742l1.39,0.091l0.282-1.93l-0.238-0.067
		C257.664,45.114,257.501,45.077,257.307,45.047"/>
	<path fill="#FFFFFF" d="M268.31,45.256v1.683l1.588,0.115l-3.415,9.462l-0.287-0.96l-3.25-8.502l1.533-0.115v-1.683h-5.321v1.678
		l1.49,0.12l4.813,12.173l-0.671,1.746c-0.292,0.723-0.619,1.313-0.997,1.755c-0.342,0.411-0.795,0.605-1.385,0.605
		c-0.084,0-0.237-0.011-0.456-0.033c-0.218-0.019-0.372-0.039-0.472-0.049l-0.277-0.049l-0.254,1.79l0.214,0.077
		c0.133,0.053,0.337,0.092,0.62,0.132c0.273,0.046,0.496,0.066,0.695,0.066c1.171,0,2.094-0.365,2.72-1.081
		c0.586-0.683,1.076-1.514,1.439-2.487l5.538-14.646l1.488-0.12v-1.678H268.31z"/>
	<path fill="#FFFFFF" d="M99.338,72.448c-1.901,0-3.454,0.688-4.615,2.038c-1.147,1.342-1.728,3.074-1.728,5.159v0.417
		c0,2.089,0.581,3.826,1.728,5.163c1.161,1.346,2.719,2.032,4.64,2.032c1.906,0,3.459-0.687,4.61-2.032
		c1.146-1.337,1.722-3.074,1.722-5.163v-0.417c0-2.085-0.576-3.817-1.727-5.159C102.812,73.136,101.249,72.448,99.338,72.448
		 M103.611,80.063c0,1.519-0.382,2.816-1.147,3.841c-0.754,1.018-1.766,1.511-3.102,1.511c-1.355,0-2.382-0.493-3.136-1.511
		c-0.76-1.024-1.147-2.322-1.147-3.841v-0.417c0-1.494,0.387-2.779,1.147-3.817c0.753-1.026,1.776-1.522,3.111-1.522
		c1.345,0,2.357,0.496,3.117,1.522c0.774,1.038,1.156,2.323,1.156,3.817V80.063z"/>
	<path fill="#FFFFFF" d="M115.193,66.439c-0.302-0.04-0.59-0.066-0.878-0.066c-1.32,0-2.366,0.411-3.106,1.22
		c-0.744,0.802-1.122,1.94-1.122,3.39v1.722h-2.262v1.805h2.262v10.662l-2.069,0.161v1.658h6.228v-1.658l-2.074-0.161V74.509h3.275
		v-1.805h-3.275v-1.722c0-0.873,0.203-1.561,0.601-2.027c0.396-0.464,0.942-0.687,1.692-0.687c0.272,0,0.511,0.01,0.711,0.042
		c0.202,0.029,0.401,0.064,0.594,0.116l0.298,0.069l0.277-1.81l-0.243-0.063C115.795,66.546,115.491,66.484,115.193,66.439"/>
	<polygon fill="#FFFFFF" points="124.37,69.629 126.439,69.797 126.439,85.168 124.37,85.334 124.37,86.992 130.6,86.992 
		130.6,85.334 128.524,85.168 128.524,69.797 130.6,69.629 130.6,67.96 124.37,67.96 	"/>
	<path fill="#FFFFFF" d="M145.779,78.351c0-1.988-0.412-3.481-1.23-4.442c-0.829-0.965-2.05-1.46-3.612-1.46
		c-1.078,0-2.021,0.252-2.81,0.732c-0.541,0.336-1.018,0.774-1.404,1.304l-0.109-1.78h-3.95v1.668l2.063,0.167v10.632l-2.063,0.166
		v1.653h6.219v-1.653l-2.075-0.166v-7.994c0.283-0.854,0.74-1.552,1.355-2.07c0.615-0.511,1.434-0.776,2.431-0.776
		c1.008,0,1.753,0.29,2.298,0.884c0.531,0.595,0.811,1.652,0.811,3.146v6.811l-2.07,0.166v1.653h6.213v-1.653l-2.064-0.166V78.351z"
		/>
	<path fill="#FFFFFF" d="M161.62,66.639h-4.148v1.666l2.064,0.169v5.723c-0.382-0.454-0.833-0.819-1.33-1.109
		c-0.739-0.422-1.628-0.641-2.626-0.641c-1.746,0-3.131,0.708-4.107,2.095c-0.949,1.358-1.439,3.181-1.439,5.417v0.271
		c0,2.1,0.49,3.807,1.443,5.077c0.979,1.295,2.353,1.95,4.08,1.95c1.012,0,1.915-0.208,2.67-0.616
		c0.535-0.288,0.997-0.665,1.398-1.126l0.09,1.479h3.971v-1.658l-2.065-0.168V66.639z M159.536,83.118
		c-0.337,0.697-0.81,1.251-1.399,1.648c-0.61,0.404-1.38,0.608-2.292,0.608c-1.247,0-2.149-0.442-2.765-1.346
		c-0.631-0.93-0.948-2.205-0.948-3.801v-0.271c0-1.687,0.323-3.074,0.963-4.122c0.625-1.01,1.532-1.504,2.773-1.504
		c0.952,0,1.728,0.224,2.313,0.675c0.585,0.45,1.042,1.032,1.354,1.739V83.118z"/>
	<polygon fill="#FFFFFF" points="169.858,72.704 165.725,72.704 165.725,74.372 167.789,74.539 167.789,85.171 165.725,85.332 
		165.725,86.99 171.924,86.99 171.924,85.332 169.858,85.171 	"/>
	<rect x="167.784" y="66.641" fill="#FFFFFF" width="2.074" height="2.694"/>
	<path fill="#FFFFFF" d="M185.596,84.736c-0.016-0.253-0.021-0.519-0.021-0.791v-6.749c0-1.521-0.496-2.705-1.482-3.529
		c-0.964-0.806-2.259-1.219-3.833-1.219c-1.026,0-2,0.157-2.912,0.473c-0.913,0.314-1.703,0.727-2.357,1.241l-0.104,0.081
		l-0.017,3.06h1.792l0.146-1.982c0.371-0.295,0.847-0.538,1.389-0.717c0.601-0.198,1.27-0.301,2.005-0.301
		c1.057,0,1.887,0.261,2.451,0.77c0.575,0.507,0.854,1.193,0.854,2.099v1.534h-2.756c-1.914,0-3.463,0.391-4.59,1.163
		c-1.171,0.797-1.768,1.891-1.768,3.253c0,1.261,0.402,2.271,1.196,3.018c0.79,0.742,1.901,1.119,3.315,1.119
		c1.103,0,2.109-0.255,2.993-0.747c0.635-0.357,1.181-0.789,1.643-1.28c0.01,0.102,0.021,0.209,0.034,0.311
		c0.041,0.345,0.115,0.756,0.22,1.229l0.043,0.218h3.212v-1.655l-1.409-0.091C185.62,85.071,185.605,84.906,185.596,84.736
		 M183.507,82.841c-0.348,0.728-0.913,1.328-1.683,1.79c-0.78,0.477-1.718,0.722-2.76,0.722c-0.813,0-1.469-0.204-1.926-0.61
		c-0.451-0.402-0.669-0.916-0.669-1.571c0-0.781,0.367-1.412,1.116-1.93c0.769-0.533,1.83-0.809,3.142-0.809h2.779V82.841z"/>
</g>
<g id="Layer_2">
	<g>
		<defs>
			<rect id="SVGID_1_" x="0.465" y="-0.075" width="95.192" height="98.331"/>
		</defs>
		<clipPath id="SVGID_2_">
			<use xlink:href="#SVGID_1_"  overflow="visible"/>
		</clipPath>
		<path clip-path="url(#SVGID_2_)" fill="#FFFFFF" d="M46.471,8.104h2.525c0.064,0.014,0.127,0.038,0.191,0.04
			c1.744,0.051,3.477,0.229,5.196,0.52c4.032,0.681,7.871,1.948,11.512,3.812c4.064,2.081,7.666,4.782,10.806,8.092
			c2.939,3.097,5.322,6.579,7.145,10.441c1.961,4.16,3.159,8.531,3.606,13.105c0.176,1.812,0.228,3.626,0.156,5.446
			c-0.082,2.061-0.31,4.102-0.705,6.124c-0.748,3.833-2.032,7.478-3.856,10.932c-2.042,3.865-4.649,7.307-7.816,10.317
			c-3.045,2.896-6.461,5.253-10.25,7.071c-4.112,1.974-8.438,3.196-12.97,3.682c-2.206,0.237-4.418,0.288-6.636,0.156
			c-2.405-0.144-4.78-0.482-7.117-1.063c-7.774-1.933-14.395-5.839-19.84-11.712c-4.061-4.378-6.977-9.433-8.765-15.132
			C8.557,56.44,7.959,52.86,7.863,49.199c-0.002-0.065-0.026-0.129-0.04-0.192v-2.029c0.014-0.048,0.037-0.095,0.04-0.143
			c0.019-0.397,0.03-0.796,0.051-1.192c0.103-1.924,0.356-3.826,0.745-5.71c0.739-3.585,1.947-7.005,3.634-10.254
			c2.281-4.394,5.273-8.235,8.977-11.521c4.168-3.695,8.902-6.407,14.205-8.122c3.448-1.115,6.983-1.742,10.604-1.885
			C46.21,8.146,46.341,8.119,46.471,8.104 M75.421,48.015c-0.01-15.184-12.25-27.561-27.443-27.679
			c-15.5-0.12-27.721,12.356-27.916,27.294c-0.2,15.396,12.207,28.061,27.667,28.063C63.117,75.694,75.413,63.208,75.421,48.015
			 M12.289,58.501c0.276,0.711,0.543,1.397,0.813,2.091c0.131-0.05,0.227-0.095,0.328-0.121c0.157-0.041,0.223-0.116,0.172-0.287
			c-0.047-0.155-0.065-0.317-0.097-0.48c1.242-0.483,2.461-0.955,3.736-1.449c-0.07,0.099-0.102,0.147-0.137,0.194
			c-1.021,1.364-2.043,2.729-3.063,4.095c-0.046,0.061-0.108,0.157-0.09,0.211c0.164,0.462,0.346,0.919,0.513,1.358
			c0.046,0.008,0.054,0.012,0.061,0.01c0.494-0.14,0.497-0.141,0.392-0.645c-0.031-0.152-0.012-0.239,0.159-0.302
			c0.947-0.356,1.89-0.726,2.833-1.092c0.48-0.186,0.96-0.374,1.446-0.563c0.104,0.172,0.192,0.329,0.294,0.477
			c0.03,0.043,0.111,0.093,0.152,0.081c0.147-0.043,0.287-0.111,0.445-0.175c-0.275-0.707-0.539-1.391-0.811-2.09
			c-0.13,0.051-0.238,0.102-0.351,0.134c-0.142,0.04-0.196,0.103-0.145,0.258c0.05,0.155,0.065,0.322,0.098,0.498
			c-1.232,0.479-2.458,0.953-3.685,1.43c0.025-0.102,0.068-0.162,0.113-0.222c1.001-1.334,2.003-2.666,3-4.001
			c0.061-0.082,0.13-0.207,0.109-0.289c-0.063-0.236-0.17-0.462-0.271-0.719c-1.716,0.665-3.417,1.323-5.118,1.982
			c-0.13-0.213-0.247-0.403-0.364-0.594C12.641,58.362,12.482,58.426,12.289,58.501 M21.246,23.35
			c1.109,1.153,2.214,2.304,3.324,3.46c-0.12,0.168-0.23,0.31-0.326,0.461c-0.027,0.044-0.033,0.135-0.006,0.17
			c0.094,0.122,0.208,0.229,0.322,0.351c0.713-0.694,1.423-1.345,2.084-2.04c0.856-0.9,0.912-2.238,0.147-3.217
			c-0.313-0.4-0.666-0.779-1.045-1.116c-1.053-0.938-2.374-0.948-3.434-0.048c-0.287,0.243-0.559,0.503-0.817,0.774
			c-0.388,0.407-0.757,0.833-1.134,1.251c-0.024-0.003,0.038,0.053,0.085,0.118c0.138,0.195,0.283,0.237,0.473,0.062
			C21.013,23.49,21.128,23.43,21.246,23.35 M32.4,23.182c0.811-0.066,1.513-0.3,2.056-0.895c0.269-0.294,0.39-0.645,0.393-1.048
			c0.002-0.398-0.125-0.751-0.312-1.091c-0.69-1.255-1.381-2.51-2.073-3.764c-0.027-0.051-0.063-0.096-0.104-0.159
			c-0.218,0.121-0.424,0.234-0.629,0.348c0.062,0.175,0.113,0.317,0.174,0.488c-0.088-0.028-0.143-0.049-0.199-0.063
			c-0.961-0.268-2.007,0.459-2.059,1.437c-0.055,1.052,0.362,1.924,1.092,2.64c0.667,0.652,1.549,0.674,2.298,0.121
			c0.292-0.215,0.469-0.511,0.582-0.894c0.086,0.156,0.153,0.271,0.211,0.391c0.046,0.094,0.09,0.191,0.12,0.29
			c0.146,0.468,0.029,0.832-0.391,1.085c-0.235,0.14-0.501,0.231-0.762,0.32c-0.165,0.057-0.345,0.069-0.527,0.103
			C32.314,22.727,32.354,22.939,32.4,23.182 M78.269,55.33c1.955,0.356,3.888,0.71,5.835,1.066c0.088-0.476,0.17-0.917,0.25-1.357
			c0.009-0.051,0.01-0.103,0.017-0.172c-0.142-0.028-0.271-0.073-0.401-0.077c-0.067-0.002-0.165,0.053-0.196,0.11
			c-0.084,0.155-0.099,0.41-0.219,0.47c-0.137,0.069-0.357-0.026-0.541-0.059c-0.372-0.067-0.743-0.14-1.114-0.209
			c-0.007-0.019-0.015-0.036-0.022-0.055c0.027-0.013,0.058-0.022,0.081-0.04c0.863-0.672,0.894-1.912,0.04-2.588
			c-0.782-0.62-1.702-0.822-2.67-0.687c-0.973,0.135-1.521,0.829-1.465,1.811c0.017,0.314,0.168,0.618,0.257,0.926h-0.393
			c-0.076,0.402-0.152,0.797-0.225,1.193c-0.012,0.065-0.011,0.132-0.017,0.213c0.116,0.025,0.226,0.047,0.333,0.074
			c0.145,0.035,0.24,0.011,0.282-0.156C78.136,55.642,78.206,55.499,78.269,55.33 M60.041,12.728
			c-0.29,0.49-0.294,0.499,0.147,0.772c0.151,0.093,0.178,0.17,0.106,0.336c-0.641,1.479-1.272,2.962-1.906,4.443
			c-0.111,0.261-0.22,0.522-0.335,0.798c0.082,0.037,0.148,0.068,0.216,0.098c0.145,0.061,0.312,0.194,0.43,0.16
			c0.123-0.036,0.198-0.233,0.295-0.361c0.008-0.01,0.026-0.012,0.04-0.018c0.219,1.03,1.782,1.688,2.761,0.747
			c0.737-0.707,1.063-1.602,1.053-2.615c-0.008-0.809-0.53-1.45-1.327-1.584c-0.325-0.054-0.67,0.009-0.998,0.019
			c0.295-0.694,0.612-1.435,0.934-2.193C60.968,13.123,60.502,12.924,60.041,12.728 M83.006,45.951h-0.551
			c-0.033,0.175-0.052,0.347-0.102,0.509c-0.021,0.064-0.107,0.152-0.164,0.152c-0.983,0-1.967-0.01-2.951-0.028
			c-0.055,0-0.139-0.091-0.157-0.153c-0.047-0.17-0.068-0.349-0.101-0.529h-0.558v2.245c0.115,0,0.227-0.009,0.336,0.003
			c0.165,0.018,0.227-0.048,0.24-0.211c0.012-0.154,0.06-0.305,0.092-0.455c0.866,0,1.714-0.001,2.561,0.001
			c0.036,0,0.074,0.012,0.107,0.027c0.388,0.169,0.659,0.714,0.598,1.194c-0.063,0.485-0.274,0.686-0.816,0.771
			c-0.088,0.014-0.18,0.019-0.269,0.017c-0.661-0.009-1.321-0.027-1.982-0.028c-0.173,0-0.243-0.038-0.266-0.228
			c-0.06-0.492-0.073-0.491-0.576-0.458c-0.013,0-0.026,0.013-0.067,0.032v2.189h0.541c0.046-0.229,0.09-0.447,0.134-0.669
			c0.042-0.002,0.071-0.006,0.1-0.006c0.781,0.013,1.563,0.047,2.342,0.029c1.19-0.028,1.862-0.948,1.495-2.057
			c-0.099-0.298-0.329-0.555-0.504-0.838c0.101-0.008,0.242-0.008,0.376-0.036c0.054-0.01,0.136-0.08,0.136-0.123
			C83.01,46.859,83.006,46.418,83.006,45.951 M18.515,38.749c-0.137-0.045-0.255-0.072-0.361-0.122
			c-0.146-0.069-0.216-0.018-0.277,0.115c-0.067,0.147-0.151,0.288-0.233,0.442c-0.78-0.256-1.54-0.511-2.304-0.749
			c-0.198-0.061-0.323-0.176-0.413-0.35c-0.236-0.464-0.173-0.91,0.13-1.309c0.098-0.129,0.288-0.204,0.451-0.259
			c0.112-0.039,0.259-0.026,0.376,0.008c0.794,0.243,1.585,0.499,2.384,0.752c-0.029,0.201-0.062,0.377-0.074,0.554
			c-0.004,0.059,0.036,0.151,0.082,0.173c0.133,0.063,0.279,0.097,0.436,0.146c0.121-0.369,0.234-0.717,0.348-1.064
			c0.115-0.353,0.23-0.705,0.349-1.069c-0.136-0.045-0.247-0.068-0.347-0.116c-0.148-0.07-0.229-0.03-0.292,0.117
			c-0.065,0.148-0.153,0.288-0.229,0.429c-0.07-0.021-0.121-0.034-0.171-0.051c-0.749-0.239-1.49-0.512-2.25-0.712
			c-1.101-0.29-1.963,0.4-1.935,1.54c0.008,0.319,0.146,0.636,0.221,0.941c-0.133-0.028-0.314-0.065-0.514-0.107
			c-0.152,0.466-0.3,0.917-0.446,1.364c0.493,0.262,0.514,0.256,0.744-0.182c0.011-0.021,0.023-0.039,0.03-0.061
			c0.051-0.146,0.139-0.156,0.28-0.108c0.617,0.209,1.239,0.408,1.858,0.611c0.339,0.11,0.677,0.225,1.02,0.338
			c-0.03,0.185-0.066,0.347-0.077,0.51c-0.004,0.068,0.026,0.18,0.073,0.202c0.138,0.064,0.291,0.096,0.446,0.143
			C18.054,40.157,18.28,39.467,18.515,38.749 M75.951,26.858c-0.281-0.386-0.548-0.754-0.817-1.122
			c-0.311-0.423-0.312-0.423-0.721-0.083c-0.01,0.01-0.011,0.027-0.027,0.069c0.271,0.251,0.099,0.479-0.063,0.726
			c-0.542,0.829-1.105,1.646-1.588,2.509c-0.282,0.504-0.658,0.717-1.198,0.773c-0.357,0.039-0.641-0.008-0.808-0.361
			c-0.024-0.052-0.07-0.093-0.114-0.15c-0.202,0.112-0.395,0.22-0.582,0.325c0.168,0.555,0.636,1.02,1.197,0.983
			c0.304-0.021,0.616-0.036,0.908-0.116c1.416-0.387,2.829-0.786,4.238-1.198c0.28-0.082,0.517-0.127,0.704,0.15
			c0.005,0.009,0.027,0.007,0.052,0.012c0.135-0.103,0.276-0.209,0.427-0.323c-0.376-0.514-0.738-1.008-1.111-1.517
			c-0.155,0.117-0.362,0.198-0.406,0.332c-0.041,0.126,0.092,0.309,0.154,0.479c-0.9,0.287-1.801,0.574-2.719,0.866
			c0.56-0.804,1.102-1.581,1.683-2.415c0.114,0.159,0.206,0.288,0.302,0.423C75.646,27.085,75.789,26.979,75.951,26.858 M43.35,15
			c-0.279,0.046-0.55,0.09-0.822,0.136c-0.517,0.085-1.011,0.228-1.405,0.599c-0.392,0.37-0.429,0.824-0.292,1.31
			c0.13,0.463,0.423,0.773,0.91,0.859c0.709,0.126,1.305-0.076,1.768-0.638c0.049-0.06,0.096-0.123,0.165-0.21
			c0.052,0.158,0.081,0.282,0.135,0.394c0.026,0.055,0.104,0.127,0.149,0.121c0.331-0.04,0.661-0.099,1.006-0.153
			c-0.023-0.158-0.03-0.295-0.069-0.422c-0.018-0.057-0.103-0.137-0.151-0.132c-0.198,0.02-0.232-0.087-0.256-0.249
			c-0.115-0.765-0.233-1.527-0.362-2.287c-0.107-0.634-0.464-1.065-1.103-1.188c-0.915-0.173-1.721,0.088-2.41,0.71
			c-0.043,0.038-0.078,0.116-0.072,0.17c0.033,0.267,0.081,0.53,0.127,0.821c0.229-0.036,0.439-0.069,0.654-0.104
			c0.006-0.063,0.021-0.108,0.014-0.149c-0.072-0.394,0.18-0.558,0.484-0.67c0.167-0.061,0.346-0.106,0.523-0.121
			c0.515-0.043,0.842,0.225,0.928,0.735C43.297,14.678,43.321,14.824,43.35,15 M14.892,53.497c0.052,0.268,0.097,0.503,0.143,0.736
			c0.109,0.551,0.259,1.084,0.685,1.486c0.373,0.354,0.813,0.383,1.28,0.236c0.433-0.137,0.745-0.409,0.831-0.862
			c0.14-0.741-0.078-1.363-0.687-1.832c-0.063-0.049-0.125-0.095-0.207-0.156c0.15-0.057,0.278-0.095,0.397-0.151
			c0.047-0.023,0.11-0.096,0.103-0.134c-0.053-0.339-0.12-0.676-0.184-1.016c-0.118,0.018-0.207,0.029-0.293,0.046
			c-0.086,0.019-0.17,0.044-0.249,0.065c-0.019,0.351-0.019,0.352-0.354,0.415c-0.722,0.138-1.444,0.27-2.165,0.414
			c-0.639,0.129-1.06,0.509-1.157,1.159c-0.136,0.91,0.151,1.701,0.789,2.364c0.038,0.038,0.105,0.085,0.15,0.077
			c0.278-0.047,0.554-0.106,0.846-0.167c-0.033-0.163-0.078-0.3-0.084-0.439c-0.009-0.175-0.083-0.251-0.253-0.217
			c-0.292,0.057-0.471-0.104-0.563-0.339c-0.099-0.253-0.181-0.527-0.201-0.797c-0.028-0.358,0.196-0.65,0.526-0.752
			C14.447,53.574,14.657,53.547,14.892,53.497 M16.878,33.939c0.063-0.12,0.117-0.217,0.168-0.316
			c0.147-0.288,0.151-0.294-0.105-0.48c-0.14-0.101-0.212-0.237-0.17-0.385c0.084-0.291,0.167-0.595,0.319-0.852
			c0.199-0.338,0.563-0.452,0.899-0.329c0.208,0.076,0.402,0.195,0.615,0.301c-0.111,0.213-0.21,0.404-0.311,0.596
			c-0.223,0.42-0.408,0.851-0.438,1.336c-0.058,0.891,0.83,1.621,1.676,1.349c0.584-0.19,0.894-0.663,1-1.233
			c0.064-0.338-0.005-0.703-0.014-1.058c0.09,0.028,0.215,0.075,0.344,0.105c0.049,0.011,0.138,0.005,0.155-0.024
			c0.169-0.305,0.327-0.614,0.494-0.933c-0.152-0.079-0.268-0.15-0.392-0.199c-0.047-0.018-0.153-0.009-0.167,0.021
			c-0.115,0.231-0.26,0.15-0.421,0.064c-0.643-0.341-1.288-0.679-1.934-1.016c-0.658-0.342-1.276-0.287-1.778,0.224
			c-0.606,0.616-0.846,1.386-0.776,2.245c0.006,0.076,0.065,0.176,0.13,0.214C16.391,33.699,16.622,33.808,16.878,33.939
			 M75.45,62.65c0.033,0.01,0.068,0.02,0.102,0.034c0.723,0.331,1.445,0.662,2.168,0.994c0.505,0.23,0.996,0.243,1.474-0.082
			c0.684-0.466,1.151-1.762,0.921-2.583c-0.015-0.05-0.059-0.108-0.104-0.131c-0.241-0.119-0.486-0.228-0.749-0.347
			c-0.097,0.213-0.188,0.407-0.279,0.606c0.057,0.047,0.097,0.097,0.149,0.12c0.319,0.145,0.349,0.405,0.271,0.698
			c-0.048,0.179-0.104,0.361-0.188,0.525c-0.241,0.471-0.653,0.608-1.133,0.395c-0.142-0.063-0.282-0.133-0.436-0.206
			c0.131-0.288,0.257-0.559,0.377-0.831c0.184-0.417,0.304-0.847,0.255-1.31c-0.075-0.721-0.792-1.264-1.51-1.14
			c-0.587,0.102-1.136,0.726-1.164,1.383c-0.014,0.335,0.054,0.676,0.084,1.016c-0.094-0.025-0.219-0.071-0.349-0.091
			c-0.057-0.009-0.157,0.021-0.177,0.063c-0.15,0.299-0.284,0.606-0.421,0.907C75.205,62.954,75.205,62.954,75.45,62.65
			 M68.79,24.854c-0.187-0.141-0.252-0.261-0.072-0.474c0.499-0.59,0.97-1.202,1.444-1.813c0.283-0.364,0.381-0.774,0.262-1.229
			c-0.243-0.934-1.469-1.649-2.337-1.65c-0.052,0-0.121,0.028-0.153,0.067c-0.172,0.206-0.335,0.419-0.512,0.642
			c0.185,0.146,0.354,0.281,0.527,0.418c0.039-0.03,0.069-0.051,0.097-0.074c0.339-0.292,0.51-0.321,0.895-0.09
			c0.19,0.115,0.369,0.262,0.515,0.428c0.23,0.26,0.245,0.582,0.06,0.874c-0.115,0.181-0.257,0.345-0.397,0.527
			c-0.124-0.098-0.228-0.18-0.332-0.264c-0.436-0.345-0.863-0.7-1.422-0.838c-0.844-0.206-1.644,0.412-1.645,1.279
			c0,0.604,0.581,1.274,1.254,1.411c0.265,0.055,0.541,0.049,0.827,0.071c-0.065,0.118-0.136,0.226-0.181,0.341
			c-0.021,0.056-0.019,0.159,0.016,0.189c0.256,0.216,0.523,0.419,0.798,0.637C68.56,25.148,68.668,25.01,68.79,24.854
			 M15.466,45.099c0.112-0.012,0.309-0.02,0.498-0.059c0.842-0.175,1.426-0.779,1.557-1.603c0.147-0.924-0.175-1.655-0.954-2.101
			c-0.669-0.382-1.399-0.498-2.15-0.356c-0.772,0.146-1.328,0.584-1.545,1.366c-0.22,0.789-0.099,1.505,0.534,2.076
			C13.966,44.93,14.654,45.074,15.466,45.099 M77.877,37.109c0.647-0.048,1.414-0.346,2.005-1.005
			c0.996-1.109,0.411-2.935-1.045-3.254c-0.901-0.197-1.693,0.107-2.396,0.641c-0.748,0.567-0.993,1.413-0.704,2.24
			C76.053,36.635,76.712,37.109,77.877,37.109 M53.917,17.249c-0.704-0.108-1.382-0.214-2.068-0.319
			c0.076-0.493,0.148-0.967,0.221-1.441c0.162-1.044,0.326-2.088,0.48-3.132c0.021-0.145,0.078-0.192,0.216-0.188
			c0.168,0.007,0.338,0.002,0.509,0.002c0.029-0.204,0.053-0.372,0.081-0.568c-0.746-0.114-1.473-0.225-2.197-0.334
			c-0.152,0.547-0.152,0.547,0.341,0.713c0.007,0.002,0.015,0.004,0.022,0.005c0.166,0.022,0.191,0.115,0.167,0.27
			c-0.183,1.154-0.357,2.312-0.535,3.466c-0.056,0.361-0.116,0.718-0.175,1.089c-0.202,0-0.374-0.007-0.546,0.004
			c-0.054,0.003-0.143,0.047-0.153,0.085c-0.037,0.155-0.047,0.316-0.069,0.48c1.489,0.228,2.944,0.45,4.409,0.674
			c0.072-0.481,0.139-0.921,0.208-1.373c-0.212-0.035-0.396-0.061-0.579-0.099c-0.125-0.025-0.179,0.024-0.203,0.142
			C54.008,16.892,53.964,17.057,53.917,17.249 M81.261,37.001c-0.17,0.048-0.311,0.099-0.456,0.128
			c-0.137,0.028-0.174,0.083-0.127,0.219c0.057,0.166,0.095,0.337,0.145,0.519c-1.05,0.305-2.078,0.601-3.12,0.901
			c-0.107-0.208-0.211-0.412-0.318-0.621c-0.185,0.053-0.348,0.101-0.541,0.158c0.208,0.722,0.413,1.429,0.622,2.152
			c0.126-0.034,0.224-0.074,0.326-0.087c0.185-0.024,0.232-0.123,0.202-0.294c-0.026-0.152-0.034-0.309-0.051-0.469
			c1.054-0.302,2.081-0.599,3.122-0.899c0.095,0.314,0.184,0.605,0.276,0.913c0.221-0.066,0.417-0.125,0.623-0.187
			c-0.048-0.169-0.089-0.313-0.13-0.457c-0.041-0.148-0.082-0.297-0.127-0.454c0.229-0.066,0.436-0.134,0.647-0.184
			c0.483-0.11,0.784,0.08,0.899,0.564c0.024,0.102,0.04,0.203,0.063,0.321c0.19-0.021,0.37-0.034,0.544-0.069
			c0.042-0.009,0.093-0.084,0.102-0.136c0.014-0.069-0.006-0.148-0.013-0.223c-0.083-0.92-0.742-1.463-1.646-1.334
			c-0.278,0.038-0.548,0.134-0.84,0.208C81.397,37.453,81.333,37.24,81.261,37.001 M83.569,43.306
			c-1.596,0.188-3.173,0.375-4.757,0.563c-0.072-0.23-0.138-0.44-0.208-0.668c-0.198,0.028-0.378,0.053-0.56,0.077
			c0.089,0.758,0.176,1.478,0.263,2.218c0.142-0.017,0.259-0.04,0.376-0.04c0.143,0.002,0.199-0.056,0.201-0.198
			c0-0.17,0.018-0.341,0.028-0.519c0.751-0.092,1.487-0.182,2.224-0.271c0.782-0.094,1.564-0.183,2.345-0.279
			c0.139-0.018,0.225,0.007,0.255,0.165c0.032,0.158,0.092,0.313,0.146,0.484c0.195-0.026,0.377-0.048,0.568-0.073
			c-0.091-0.756-0.178-1.481-0.267-2.224c-0.206,0.024-0.374,0.047-0.559,0.07C83.606,42.844,83.589,43.064,83.569,43.306
			 M47.589,16.764c-0.146-0.019-0.279-0.053-0.412-0.05c-0.203,0.005-0.268-0.084-0.277-0.278c-0.062-1.297-0.132-2.593-0.2-3.889
			c-0.031-0.591-0.064-1.18-0.098-1.796c-0.524,0.028-1.029,0.055-1.524,0.081v0.569c0.185,0.022,0.347,0.05,0.511,0.062
			c0.149,0.012,0.197,0.083,0.202,0.229c0.014,0.473,0.041,0.944,0.065,1.417c0.06,1.153,0.12,2.309,0.183,3.462
			c0.007,0.124-0.043,0.172-0.163,0.192c-0.167,0.028-0.331,0.077-0.493,0.116c0,0.118,0.009,0.217-0.002,0.312
			c-0.027,0.219,0.071,0.266,0.271,0.248c0.487-0.037,0.974-0.056,1.461-0.084C47.704,17.32,47.676,17.462,47.589,16.764
			 M17.288,27.763c1.441,0.985,2.876,1.966,4.315,2.949c-0.083,0.185-0.166,0.345-0.226,0.513c-0.019,0.053-0.001,0.153,0.038,0.187
			c0.111,0.094,0.242,0.164,0.377,0.252c0.427-0.625,0.839-1.229,1.261-1.848c-0.115-0.081-0.217-0.144-0.308-0.22
			c-0.113-0.097-0.195-0.097-0.297,0.026c-0.104,0.126-0.237,0.228-0.37,0.352c-1.614-1.103-3.24-2.213-4.882-3.335
			c-0.301,0.442-0.585,0.86-0.878,1.29c0.123,0.085,0.227,0.146,0.317,0.223c0.108,0.093,0.186,0.088,0.281-0.021
			C17.024,28.008,17.15,27.897,17.288,27.763 M13.276,51.602c0-0.185,0.019-0.329-0.004-0.469c-0.034-0.204,0.022-0.268,0.239-0.277
			c0.892-0.045,1.784-0.104,2.673-0.178c0.446-0.036,0.818-0.228,0.968-0.685c0.132-0.402,0.057-0.802-0.105-1.185
			c-0.021-0.05-0.113-0.106-0.163-0.097c-0.167,0.029-0.327,0.086-0.496,0.134c0.027,0.125,0.049,0.228,0.069,0.33
			c0.079,0.399-0.068,0.611-0.472,0.643c-0.665,0.053-1.332,0.093-1.999,0.136c-0.259,0.018-0.517,0.033-0.78,0.05
			c-0.027-0.306-0.051-0.578-0.077-0.861c-0.227,0.019-0.424,0.036-0.614,0.053v0.852c-0.355,0.028-0.709,0.057-1.07,0.085
			c0.02,0.306,0.036,0.573,0.054,0.857c0.372-0.021,0.721-0.041,1.086-0.061c0.024,0.239,0.047,0.46,0.072,0.705
			C12.868,51.623,13.066,51.612,13.276,51.602 M40.131,17.582c-0.112,0.049-0.207,0.092-0.303,0.131
			c-0.412,0.17-0.617,0.075-0.749-0.35c-0.089-0.286-0.173-0.574-0.257-0.862c-0.171-0.589-0.34-1.177-0.513-1.776
			c0.283-0.089,0.55-0.172,0.826-0.258c-0.067-0.221-0.125-0.411-0.187-0.616c-0.289,0.079-0.553,0.152-0.826,0.226
			c-0.106-0.355-0.207-0.689-0.313-1.046c-0.283,0.083-0.546,0.159-0.83,0.242c0.102,0.361,0.197,0.703,0.295,1.053
			c-0.239,0.075-0.457,0.143-0.685,0.215c0.067,0.221,0.126,0.417,0.187,0.618c0.25-0.069,0.464-0.128,0.69-0.19
			c0.118,0.403,0.229,0.791,0.344,1.179c0.163,0.555,0.316,1.11,0.496,1.659c0.128,0.392,0.374,0.693,0.809,0.76
			c0.439,0.065,0.828-0.092,1.181-0.341c0.048-0.034,0.087-0.147,0.067-0.2C40.305,17.874,40.215,17.735,40.131,17.582
			 M64.323,17.514c0.134,0.117,0.252,0.233,0.385,0.33c0.126,0.092,0.119,0.173,0.042,0.299c-0.423,0.691-0.837,1.388-1.254,2.083
			c-0.1,0.166-0.201,0.331-0.305,0.506c-0.184-0.07-0.349-0.14-0.52-0.19c-0.054-0.017-0.152,0.001-0.181,0.04
			c-0.089,0.118-0.154,0.254-0.237,0.396c0.65,0.39,1.283,0.769,1.925,1.153c0.106-0.177,0.194-0.324,0.29-0.484
			c-0.173-0.157-0.344-0.312-0.519-0.469c0.408-0.681,0.806-1.344,1.203-2.007c0.218-0.364,0.579-0.496,0.98-0.334
			c0.164,0.065,0.305,0.188,0.467,0.264c0.06,0.027,0.18,0.019,0.221-0.022c0.148-0.156,0.276-0.333,0.423-0.518
			c-0.472-0.483-1.002-0.499-1.602-0.236c0.09-0.209,0.162-0.378,0.237-0.55c-0.434-0.26-0.842-0.504-1.261-0.754
			C64.511,17.197,64.419,17.352,64.323,17.514 M71.704,22.896c0.137,0.206,0.259,0.393,0.388,0.586
			c-0.777,0.749-1.542,1.488-2.314,2.233c-0.19-0.136-0.372-0.266-0.567-0.406c-0.136,0.13-0.263,0.252-0.411,0.395
			c0.531,0.55,1.043,1.078,1.562,1.614c0.15-0.142,0.274-0.258,0.411-0.387c-0.13-0.2-0.256-0.392-0.382-0.586
			c0.555-0.537,1.101-1.063,1.643-1.593c0.375-0.367,0.831-0.37,1.206,0.004c0.122,0.121,0.232,0.253,0.36,0.393
			c0.222-0.162,0.436-0.317,0.654-0.478c-0.331-0.594-0.836-0.74-1.482-0.643c0.142-0.182,0.25-0.323,0.368-0.475
			c-0.354-0.341-0.699-0.672-1.054-1.012C71.976,22.644,71.85,22.76,71.704,22.896 M16.424,46.563
			c-1.314-0.036-2.603-0.073-3.923-0.111v1.549h0.543c0.035-0.158,0.084-0.312,0.096-0.467c0.013-0.174,0.096-0.198,0.25-0.192
			c0.577,0.024,1.156,0.032,1.733,0.05c0.425,0.014,0.849,0.035,1.284,0.052c0.016,0.121,0.027,0.224,0.044,0.326
			c0.063,0.377,0.064,0.372,0.44,0.38c0.135,0.003,0.187-0.039,0.188-0.179c0.001-0.255,0.025-0.51,0.029-0.765
			c0.005-0.433,0.001-0.865,0.001-1.309h-0.534C16.525,46.115,16.477,46.332,16.424,46.563 M57.31,18.864
			c0.037-0.127,0.057-0.23,0.096-0.324c0.068-0.161,0.044-0.262-0.137-0.324c-0.146-0.051-0.28-0.137-0.426-0.208
			c0.359-1.26,0.713-2.503,1.072-3.763c-0.52-0.147-1.004-0.286-1.5-0.427c-0.057,0.201-0.104,0.373-0.152,0.547
			c0.216,0.109,0.416,0.209,0.621,0.313c-0.296,1.036-0.588,2.057-0.884,3.092c-0.19-0.021-0.361-0.047-0.532-0.053
			c-0.061-0.002-0.164,0.028-0.182,0.071c-0.059,0.142-0.087,0.295-0.131,0.46C55.888,18.457,56.59,18.657,57.31,18.864
			 M35.179,19.407c0.072,0.177,0.139,0.342,0.213,0.527c0.7-0.279,1.384-0.554,2.085-0.835c-0.077-0.19-0.142-0.354-0.21-0.522
			c-0.171,0.033-0.325,0.044-0.463,0.095c-0.185,0.064-0.245-0.013-0.308-0.171c-0.423-1.074-0.855-2.145-1.285-3.216
			c-0.026-0.067-0.058-0.131-0.091-0.205c-0.486,0.193-0.95,0.379-1.411,0.563c0.098,0.535,0.127,0.556,0.604,0.454
			c0.08-0.019,0.161-0.03,0.262-0.05c0.398,0.997,0.794,1.99,1.192,2.988C35.568,19.162,35.379,19.282,35.179,19.407 M76.584,58.467
			c0.121,0.042,0.23,0.068,0.33,0.115c0.157,0.072,0.25,0.031,0.317-0.124c0.062-0.143,0.141-0.279,0.218-0.428
			c1.243,0.396,2.476,0.789,3.731,1.189c0.16-0.5,0.314-0.982,0.468-1.46c-0.492-0.262-0.516-0.256-0.749,0.197
			c-0.014,0.026-0.029,0.053-0.04,0.08c-0.042,0.115-0.11,0.131-0.227,0.093c-0.913-0.297-1.825-0.589-2.741-0.873
			c-0.15-0.047-0.181-0.123-0.157-0.261c0.029-0.16,0.047-0.322,0.071-0.488c-0.154-0.053-0.287-0.107-0.425-0.137
			c-0.043-0.01-0.135,0.035-0.147,0.072C77.013,57.111,76.802,57.781,76.584,58.467 M29.799,22.302
			c-0.762-1.053-1.521-2.103-2.294-3.17c-0.423,0.306-0.834,0.604-1.264,0.914c0.119,0.164,0.225,0.313,0.334,0.465
			c0.223-0.105,0.423-0.2,0.631-0.299c0.632,0.876,1.255,1.738,1.921,2.66c-0.188,0.142-0.368,0.276-0.549,0.414
			c0.142,0.192,0.247,0.336,0.364,0.497c0.617-0.446,1.214-0.879,1.808-1.31c-0.283-0.479-0.282-0.479-0.731-0.269
			C29.951,22.236,29.882,22.265,29.799,22.302 M21.135,67.967c0.007-0.604-0.456-1.078-1.056-1.079
			c-0.586-0.002-1.063,0.466-1.069,1.052c-0.006,0.583,0.459,1.056,1.052,1.068C20.647,69.021,21.128,68.554,21.135,67.967
			 M74.921,68.723c0.604,0.001,1.059-0.442,1.067-1.038c0.008-0.603-0.458-1.071-1.063-1.069c-0.593,0.001-1.058,0.464-1.058,1.054
			C73.867,68.26,74.328,68.722,74.921,68.723 M11.362,46.416h-0.868v0.849h0.868V46.416z M57.388,12.92
			c0.293,0.084,0.556,0.159,0.839,0.239c0.083-0.29,0.161-0.565,0.242-0.854c-0.289-0.083-0.552-0.158-0.835-0.239
			C57.551,12.353,57.474,12.623,57.388,12.92 M83.366,59.003c-0.291-0.093-0.562-0.179-0.845-0.27
			c-0.083,0.254-0.161,0.479-0.224,0.708c-0.012,0.043,0.024,0.14,0.059,0.151c0.242,0.088,0.49,0.157,0.748,0.237
			C83.195,59.545,83.277,59.283,83.366,59.003 M26.844,18.22c-0.183-0.254-0.348-0.479-0.522-0.72
			c-0.245,0.176-0.468,0.337-0.708,0.511c0.179,0.247,0.347,0.479,0.523,0.722C26.382,18.554,26.599,18.396,26.844,18.22
			 M33.573,13.526c0.113,0.281,0.217,0.543,0.33,0.824c0.28-0.111,0.54-0.216,0.812-0.323c-0.117-0.289-0.223-0.55-0.335-0.824
			C34.101,13.314,33.846,13.417,33.573,13.526"/>
		<path clip-path="url(#SVGID_2_)" fill="#FFFFFF" d="M47.742,74.709C33.067,74.727,20.933,62.73,21.043,47.807
			c0.108-14.647,12.069-26.497,26.709-26.491C62.564,21.321,74.58,33.465,74.438,48.28C74.297,62.809,62.416,74.713,47.742,74.709
			 M73.319,48.737c0.407-8.568-4.288-19.455-15.579-24.292c-10.848-4.646-23.587-1.282-30.722,8.542
			c-3.684,5.072-5.254,10.774-4.81,17.025c0.19,2.67,0.812,5.242,1.835,7.713c0.045-0.01,0.054-0.01,0.059-0.015
			c0.127-0.105,0.253-0.212,0.378-0.319c1.82-1.57,3.873-2.753,6.082-3.678c1.628-0.681,3.311-1.155,5.079-1.283
			c0.463-0.032,0.926-0.051,1.407-0.077c0.028-0.356,0.055-0.707,0.084-1.059c0.165-1.948,0.59-3.837,1.327-5.649
			c1.453-3.573,3.875-6.243,7.394-7.882c0.059-0.027,0.114-0.063,0.234-0.131c-1.552-0.275-2.834-0.942-3.883-2.037
			c-1.058-1.105-1.68-2.425-1.854-3.941c-0.174-1.508,0.133-2.925,0.899-4.24c1.935-3.319,6.324-4.384,9.548-2.305
			c1.639,1.058,2.696,2.548,3.042,4.467c0.484,2.687-0.408,4.91-2.517,6.733c1.206-0.113,2.337-0.086,3.458,0.095
			c1.507,0.243,2.967,0.651,3.275,0.876c-0.047-0.005-0.086-0.004-0.122-0.012c-2.098-0.418-4.201-0.461-6.31-0.091
			c-3.572,0.624-6.623,2.24-9.098,4.886c-2.509,2.684-4.212,5.821-5.074,9.402c-0.072,0.295-0.126,0.594-0.192,0.909
			c3.088,0.092,5.885,1.02,8.439,2.669c0.032-0.036,0.045-0.047,0.052-0.059c1.698-2.903,3.943-5.288,6.756-7.131
			c2.337-1.528,4.9-2.452,7.678-2.759c1.498-0.165,2.997-0.138,4.494,0.073c2.538,0.357,4.899,1.206,7.083,2.543
			C72.287,48.033,72.79,48.386,73.319,48.737 M29.144,65.569c5.168,5.688,14.356,9.731,24.455,7.376
			c9.714-2.265,15.917-9.652,18.096-15.957c-3.002-1.059-6.967-1.574-11.06-0.531c-6.106,1.555-10.384,5.372-13.273,10.865
			c-0.344-0.284-0.682-0.583-1.037-0.858c-2.543-1.978-5.419-3.016-8.646-3.05c-1.771-0.02-3.496,0.279-5.184,0.804
			C31.347,64.572,30.239,65.024,29.144,65.569 M46.27,60.238c0.021-0.036,0.053-0.086,0.081-0.139c1.314-2.371,3-4.44,5.096-6.16
			c4.066-3.335,8.711-4.664,13.928-3.941c2.16,0.3,4.197,0.991,6.127,1.997c0.464,0.243,0.916,0.509,1.382,0.768
			c0.019-0.047,0.044-0.087,0.05-0.129c0.11-0.833,0.216-1.666,0.329-2.498c0.023-0.17-0.032-0.269-0.183-0.363
			c-3.762-2.329-7.828-3.406-12.259-2.983c-2.097,0.2-4.093,0.767-5.983,1.694c-3.099,1.52-5.567,3.77-7.535,6.583
			c-0.468,0.669-0.879,1.376-1.323,2.075c-0.167-0.111-0.351-0.236-0.539-0.358c-0.19-0.12-0.38-0.241-0.574-0.356
			c-3.984-2.359-8.215-2.973-12.698-1.797c-2.804,0.736-5.31,2.078-7.646,3.768c-0.131,0.095-0.128,0.178-0.063,0.3
			c0.479,0.892,0.955,1.785,1.434,2.676c0.027,0.05,0.07,0.091,0.112,0.144c0.074-0.054,0.135-0.097,0.195-0.141
			c1.662-1.225,3.413-2.296,5.322-3.091c2.427-1.009,4.935-1.534,7.577-1.25c1.975,0.21,3.804,0.841,5.464,1.93
			C45.151,59.35,45.692,59.804,46.27,60.238 M26.495,62.287c0.05,0.08,0.073,0.127,0.104,0.168c0.542,0.71,1.089,1.416,1.624,2.132
			c0.128,0.172,0.221,0.166,0.393,0.054c3.321-2.204,6.968-3.091,10.924-2.629c2.388,0.278,4.607,1.077,6.666,2.317
			c0.319,0.192,0.629,0.399,0.949,0.6c0.027-0.036,0.046-0.058,0.062-0.083c0.67-1.099,1.437-2.126,2.273-3.104
			c1.624-1.896,3.468-3.537,5.613-4.825c2.685-1.612,5.584-2.479,8.727-2.44c2.137,0.024,4.199,0.468,6.19,1.232
			c0.628,0.241,1.244,0.515,1.879,0.78c0.027-0.065,0.06-0.132,0.082-0.201c0.222-0.764,0.447-1.525,0.66-2.29
			c0.093-0.333,0.083-0.337-0.213-0.487c-3.4-1.727-6.987-2.387-10.778-1.901c-2.135,0.271-4.166,0.887-6.08,1.86
			c-3.8,1.932-6.676,4.805-8.653,8.581c-0.046,0.089-0.097,0.176-0.151,0.272c-1.056-0.849-2.165-1.561-3.362-2.134
			c-1.798-0.858-3.689-1.351-5.684-1.389c-1.653-0.032-3.277,0.202-4.87,0.647c-1.708,0.479-3.288,1.258-4.863,2.053
			C27.493,61.75,27.007,62.017,26.495,62.287 M47.152,36.404c3.039,0,5.517-2.471,5.521-5.52c0.004-3-2.392-5.539-5.546-5.543
			c-3.048-0.005-5.522,2.501-5.523,5.524C41.603,33.927,44.085,36.404,47.152,36.404"/>
		<path clip-path="url(#SVGID_2_)" fill="#FFFFFF" d="M25.204,26.203c-1.12-1.166-2.216-2.308-3.323-3.459
			c0.297-0.282,0.566-0.567,0.863-0.816c0.67-0.564,1.522-0.595,2.208-0.024c0.429,0.356,0.83,0.766,1.171,1.207
			c0.629,0.81,0.529,1.698-0.205,2.404C25.687,25.739,25.454,25.962,25.204,26.203"/>
		<path clip-path="url(#SVGID_2_)" fill="#FFFFFF" d="M30.497,18.746c-0.023-0.492,0.122-0.813,0.479-1.031
			c0.389-0.237,0.78-0.237,1.169-0.011c0.059,0.035,0.104,0.105,0.138,0.169c0.263,0.472,0.521,0.945,0.781,1.419
			c0.237,0.432,0.137,0.906-0.254,1.211c-0.506,0.393-1.049,0.374-1.497-0.083C30.836,19.935,30.564,19.343,30.497,18.746"/>
		<path clip-path="url(#SVGID_2_)" fill="#FFFFFF" d="M79.899,52.567c0.427,0.025,0.952,0.13,1.423,0.423
			c0.339,0.211,0.569,0.501,0.537,0.92c-0.035,0.463-0.259,0.81-0.696,0.994c-0.064,0.028-0.146,0.038-0.214,0.026
			c-0.576-0.101-1.15-0.206-1.724-0.316c-0.377-0.071-0.663-0.407-0.691-0.797C78.478,53.016,78.931,52.562,79.899,52.567"/>
		<path clip-path="url(#SVGID_2_)" fill="#FFFFFF" d="M61.985,17.335c-0.047,0.521-0.252,1.117-0.671,1.622
			c-0.282,0.341-0.648,0.507-1.101,0.358c-0.458-0.15-0.755-0.451-0.831-0.938c-0.015-0.098,0.012-0.21,0.05-0.303
			c0.194-0.471,0.397-0.938,0.597-1.405c0.196-0.46,0.665-0.686,1.153-0.555C61.732,16.261,61.995,16.617,61.985,17.335"/>
		<path clip-path="url(#SVGID_2_)" fill="#FFFFFF" d="M43.442,15.603c0.035,0.223,0.079,0.428,0.094,0.635
			c0.006,0.089-0.026,0.196-0.078,0.271c-0.322,0.469-0.77,0.703-1.343,0.654c-0.439-0.036-0.634-0.588-0.351-0.979
			c0.204-0.28,0.5-0.395,0.827-0.45C42.863,15.688,43.138,15.649,43.442,15.603"/>
		<path clip-path="url(#SVGID_2_)" fill="#FFFFFF" d="M15.49,53.389c0.363-0.046,0.705-0.264,1.049,0.04
			c0.377,0.334,0.596,0.737,0.558,1.243c-0.031,0.392-0.478,0.602-0.86,0.429c-0.255-0.115-0.409-0.322-0.503-0.577
			c-0.037-0.098-0.064-0.199-0.085-0.303C15.594,53.951,15.546,53.681,15.49,53.389"/>
		<path clip-path="url(#SVGID_2_)" fill="#FFFFFF" d="M19.136,32.157c0.22,0.115,0.405,0.201,0.574,0.309
			c0.074,0.047,0.142,0.136,0.172,0.221c0.179,0.511,0.107,0.991-0.227,1.419c-0.14,0.181-0.325,0.285-0.572,0.204
			c-0.302-0.1-0.498-0.331-0.515-0.664c-0.007-0.146,0.004-0.309,0.061-0.44C18.779,32.856,18.958,32.521,19.136,32.157"/>
		<path clip-path="url(#SVGID_2_)" fill="#FFFFFF" d="M77.101,62.426c-0.221-0.1-0.41-0.172-0.585-0.27
			c-0.078-0.043-0.145-0.13-0.183-0.213c-0.203-0.438-0.164-0.874,0.058-1.295c0.156-0.3,0.364-0.42,0.622-0.376
			c0.294,0.051,0.534,0.281,0.565,0.59c0.017,0.175,0.016,0.367-0.041,0.529C77.417,61.735,77.255,62.064,77.101,62.426"/>
		<path clip-path="url(#SVGID_2_)" fill="#FFFFFF" d="M68.742,22.945c-0.078,0.101-0.136,0.179-0.197,0.253
			c-0.349,0.43-0.604,0.518-1.131,0.334c-0.2-0.07-0.394-0.188-0.559-0.322c-0.273-0.223-0.333-0.451-0.226-0.688
			c0.127-0.286,0.407-0.454,0.729-0.411c0.154,0.021,0.319,0.061,0.444,0.144C68.125,22.468,68.428,22.712,68.742,22.945"/>
		<path clip-path="url(#SVGID_2_)" fill="#FFFFFF" d="M15.455,44.271c-0.488-0.056-0.952-0.134-1.372-0.375
			c-0.457-0.264-0.674-0.666-0.602-1.089c0.094-0.547,0.395-0.865,0.952-0.963c0.731-0.126,1.426-0.016,2.028,0.438
			c0.624,0.47,0.506,1.475-0.209,1.786C16.004,44.176,15.722,44.206,15.455,44.271"/>
		<path clip-path="url(#SVGID_2_)" fill="#FFFFFF" d="M78.332,33.634c0.661-0.014,1.024,0.186,1.224,0.647
			c0.196,0.453,0.123,0.856-0.273,1.226c-0.584,0.542-1.269,0.873-2.085,0.733c-0.8-0.138-1.127-1.097-0.6-1.717
			C77.092,33.941,77.758,33.7,78.332,33.634"/>
	</g>
</g>
</svg>
